<mxfile host="app.diagrams.net" modified="2024-02-22T06:57:46.913Z" agent="Mozilla/5.0 (Macintosh; Intel Mac OS X 10_15_7) AppleWebKit/537.36 (KHTML, like Gecko) Chrome/121.0.0.0 Safari/537.36" version="23.1.1" etag="Qv-cz_ylSokcLiNg9saW" type="github">
  <diagram name="第 1 页" id="T7A8q3Y4hAlPTGfC_XGh">
    <mxGraphModel>
      <root>
        <mxCell id="0" />
        <mxCell id="1" parent="0" />
      </root>
    </mxGraphModel>
  </diagram>
</mxfile>
